<?xml version="1.0" encoding="utf-8"?>
<!-- Generator: Adobe Illustrator 26.5.0, SVG Export Plug-In . SVG Version: 6.00 Build 0)  -->
<svg version="1.1" id="Laag_1" xmlns="http://www.w3.org/2000/svg" xmlns:xlink="http://www.w3.org/1999/xlink" x="0px" y="0px"
	 viewBox="0 0 700 700" style="enable-background:new 0 0 700 700;" xml:space="preserve">
<style type="text/css">
	.st0{fill-rule:evenodd;clip-rule:evenodd;fill:#678AA7;}
</style>
<g>
	<path class="st0" d="M319.6,380.4l306,307c17.8,16.8,45.1,16.8,61.8,0c16.8-16.8,16.8-45.1,0-61.8L411.8,350L687.4,74.4
		c16.8-17.8,16.8-45.1,0-61.8c-16.8-16.8-44-16.8-61.8,0l-306,306C302.8,336.4,302.8,363.6,319.6,380.4L319.6,380.4z"/>
</g>
<g>
	<path class="st0" d="M380.4,319.6l-306-307c-17.8-16.8-45.1-16.8-61.8,0c-16.8,16.8-16.8,45.1,0,61.8L288.2,350L12.6,625.6
		c-16.8,17.8-16.8,45.1,0,61.8c16.8,16.8,44,16.8,61.8,0l306-306C397.2,363.6,397.2,336.4,380.4,319.6L380.4,319.6z"/>
</g>
</svg>
