<?xml version="1.0" encoding="utf-8"?>
<!-- Generator: Adobe Illustrator 27.4.0, SVG Export Plug-In . SVG Version: 6.00 Build 0)  -->
<svg version="1.1" id="Layer_1" xmlns="http://www.w3.org/2000/svg" xmlns:xlink="http://www.w3.org/1999/xlink" x="0px" y="0px"
	 viewBox="0 0 800 800" style="enable-background:new 0 0 800 800;" xml:space="preserve">
<style type="text/css">
	.st0{fill:#FFFFFF;}
</style>
<path d="M800,617.9C800,718.3,718.3,800,617.9,800H182.1C81.7,800,0,718.3,0,617.9V182.1C0,81.7,81.7,0,182.1,0h435.8
	C718.3,0,800,81.7,800,182.1L800,617.9L800,617.9z"/>
<path class="st0" d="M393.5,155.9c-138.2,0-250.6,112.4-250.6,250.6c0,138.2,112.4,250.6,250.6,250.6s250.6-112.4,250.6-250.6
	C644.1,268.3,531.7,155.9,393.5,155.9z M393.5,570.8c-90.6,0-164.3-73.7-164.3-164.3c0-90.6,73.7-164.3,164.3-164.3
	s164.3,73.7,164.3,164.3C557.8,497.1,484.1,570.8,393.5,570.8z"/>
<path class="st0" d="M657.1,76.2c-16.6,0-33,6.7-44.7,18.5c-11.8,11.7-18.6,28.1-18.6,44.8c0,16.6,6.8,33,18.6,44.8
	c11.7,11.7,28.1,18.5,44.7,18.5c16.7,0,33-6.8,44.8-18.5c11.8-11.8,18.5-28.1,18.5-44.8c0-16.7-6.7-33-18.5-44.8
	C690.1,83,673.7,76.2,657.1,76.2z"/>
</svg>
