<?xml version="1.0" encoding="utf-8"?>
<!-- Generator: Adobe Illustrator 27.4.0, SVG Export Plug-In . SVG Version: 6.00 Build 0)  -->
<svg version="1.1" id="Layer_1" xmlns="http://www.w3.org/2000/svg" xmlns:xlink="http://www.w3.org/1999/xlink" x="0px" y="0px"
	 viewBox="0 0 800 800" style="enable-background:new 0 0 800 800;" xml:space="preserve">
<path d="M579.2,0H220.8C99,0,0,99,0,220.8v358.5C0,701,99,800,220.8,800h358.5C701,800,800,701,800,579.2V220.8
	C800,99,701,0,579.2,0z M729,579.2c0,82.6-67.2,149.8-149.8,149.8H220.8C138.2,729,71,661.8,71,579.2V220.8
	C71,138.2,138.2,71,220.8,71h358.5C661.8,71,729,138.2,729,220.8L729,579.2L729,579.2z"/>
<path d="M394.7,199.2c-113.7,0-206.1,92.5-206.1,206.1c0,113.7,92.5,206.1,206.1,206.1S600.8,519,600.8,405.3
	C600.8,291.7,508.3,199.2,394.7,199.2z M394.7,540.5c-74.5,0-135.2-60.6-135.2-135.1c0-74.5,60.6-135.2,135.2-135.2
	s135.2,60.6,135.2,135.2C529.8,479.9,469.2,540.5,394.7,540.5z"/>
<path d="M611.4,133.7c-13.7,0-27.1,5.5-36.8,15.2c-9.7,9.7-15.3,23.1-15.3,36.8c0,13.7,5.6,27.1,15.3,36.8
	c9.7,9.7,23.1,15.2,36.8,15.2c13.7,0,27.1-5.6,36.8-15.2c9.7-9.7,15.2-23.1,15.2-36.8c0-13.7-5.5-27.2-15.2-36.8
	C638.6,139.2,625.2,133.7,611.4,133.7z"/>
</svg>
