<?xml version="1.0" encoding="utf-8"?>
<!-- Generator: Adobe Illustrator 27.3.0, SVG Export Plug-In . SVG Version: 6.00 Build 0)  -->
<svg version="1.1" id="Laag_1" xmlns="http://www.w3.org/2000/svg" xmlns:xlink="http://www.w3.org/1999/xlink" x="0px" y="0px"
	 viewBox="0 0 2834.6 2834.6" style="enable-background:new 0 0 2834.6 2834.6;" xml:space="preserve">
<style type="text/css">
	.st0{fill:#010202;}
</style>
<g>
	<path class="st0" d="M1502.3,1313.2v-3c-0.5,1-1.3,2.2-2,3H1502.3z"/>
	<path class="st0" d="M0,0v2834.6h2834.6V0H0z M1030.5,2094.7H726.6v-913.9h303.9V2094.7z M878.5,1055.9h-2
		c-101.9,0-167.8-70.3-167.8-158c0-89.7,68-158,171.8-158c104,0,168,68.3,169.9,158C1050.4,985.6,984.4,1055.9,878.5,1055.9z
		 M2126,2094.7h-303.8v-488.9c0-122.8-43.9-206.8-154-206.8c-83.8,0-133.9,56.8-155.9,111.2c-8.1,19.6-10,46.6-10,74.1v510.4h-303.7
		c0,0,3.9-828.3,0-913.9h303.7v129.4c40.5-62.3,112.6-150.8,273.9-150.8c199.8,0,349.8,130.5,349.8,411.3V2094.7z"/>
</g>
</svg>
