<?xml version="1.0" encoding="utf-8"?>
<!-- Generator: Adobe Illustrator 27.4.0, SVG Export Plug-In . SVG Version: 6.00 Build 0)  -->
<svg version="1.1" id="linkked_ikn" xmlns="http://www.w3.org/2000/svg" xmlns:xlink="http://www.w3.org/1999/xlink" x="0px"
	 y="0px" viewBox="0 0 2834.6 2834.6" style="enable-background:new 0 0 2834.6 2834.6;" xml:space="preserve">
<style type="text/css">
	.st0{fill:#010202;}
</style>
<rect x="34.7" y="943.9" class="st0" width="608.3" height="1829.4"/>
<path class="st0" d="M338.7,693.9h-4c-204,0-335.9-140.7-335.9-316.3C-1.2,198.1,135,61.3,342.7,61.3
	c208.2,0,336.3,136.7,340.1,316.3C682.8,553.2,550.7,693.9,338.7,693.9z"/>
<path class="st0" d="M2835.9,2773.3h-608.1v-978.6c0-245.8-87.9-414-308.3-414c-167.7,0-268,113.7-312.1,222.6
	c-16.2,39.2-20,93.3-20,148.3v1021.7H979.5c0,0,7.8-1658,0-1829.4h607.9v259c81.1-124.7,225.4-301.9,548.3-301.9
	c399.9,0,700.2,261.2,700.2,823.3L2835.9,2773.3L2835.9,2773.3z"/>
</svg>
