<?xml version="1.0" encoding="utf-8"?>
<!-- Generator: Adobe Illustrator 27.3.0, SVG Export Plug-In . SVG Version: 6.00 Build 0)  -->
<svg version="1.1" id="Laag_1" xmlns="http://www.w3.org/2000/svg" xmlns:xlink="http://www.w3.org/1999/xlink" x="0px" y="0px"
	 viewBox="0 0 2834.6 2834.6" style="enable-background:new 0 0 2834.6 2834.6;" xml:space="preserve">
<style type="text/css">
	.st0{fill:#FFFFFF;}
</style>
<path class="st0" d="M360.7,609.3c-24.4,0-47.6,5.1-69,13.6l1054.7,921.6c45.6,39.8,94.1,39.9,139.8,0l1056.6-921.6
	c-21.3-8.5-44.5-13.6-69-13.6L360.7,609.3L360.7,609.3z M176.2,769.6c-1.2,8.5-2,17.4-2,26.2v1243.1c0,103.3,83.2,186.5,186.5,186.5
	h2113.2c103.3,0,186.5-83.2,186.5-186.5V795.8c0-8.8-0.8-17.7-2-26.2l-1049.8,915.8c-109.5,95.5-275,95.7-384.6,0L176.2,769.6
	L176.2,769.6z"/>
</svg>
