<?xml version="1.0" encoding="utf-8"?>
<!-- Generator: Adobe Illustrator 27.3.0, SVG Export Plug-In . SVG Version: 6.00 Build 0)  -->
<svg version="1.1" id="Laag_1" xmlns="http://www.w3.org/2000/svg" xmlns:xlink="http://www.w3.org/1999/xlink" x="0px" y="0px"
	 viewBox="0 0 2834.6 2834.6" style="enable-background:new 0 0 2834.6 2834.6;" xml:space="preserve">
<style type="text/css">
	.st0{fill:#FFFFFF;}
</style>
<path class="st0" d="M2819.6,2234.7c-131.6-274.8-356.1-454.1-676.8-534.1c-48.2-12-99.4-0.1-137.8,31.3l-266.3,217.6
	c-52,42.5-125.5,48-182.7,12.7c-281.7-173.8-509.7-401.8-683.5-683.5c-35.3-57.2-29.8-130.7,12.7-182.7l217.6-266.3
	c31.4-38.4,43.4-89.6,31.3-137.8c-80-320.7-259.3-545.2-534.1-676.8c-44.3-21.2-96.6-20-140,3.1C321.8,92,189.6,175.5,64.4,269.4
	c-48,35.9-72.2,95.4-62.2,154.5c90,533.2,378.1,1094,846.3,1562.2c468.2,468.2,1028.9,756.3,1562.2,846.3
	c59.1,10,118.5-14.2,154.5-62.2c93.9-125.2,177.4-257.4,251.2-395.6C2839.6,2331.3,2840.7,2279,2819.6,2234.7L2819.6,2234.7z"/>
</svg>
