<?xml version="1.0" encoding="utf-8"?>
<!-- Generator: Adobe Illustrator 27.4.0, SVG Export Plug-In . SVG Version: 6.00 Build 0)  -->
<svg version="1.1" id="pinterest" xmlns="http://www.w3.org/2000/svg" xmlns:xlink="http://www.w3.org/1999/xlink" x="0px" y="0px"
	 viewBox="0 0 800 800" style="enable-background:new 0 0 800 800;" xml:space="preserve">
<path d="M400,0C179.1,0,0,179.1,0,400c0,163.8,89.6,295.6,230.6,357.5c-1.2-28,8.6-52.6,15.8-82.9c7.7-32.5,51.5-218,51.5-218
	s-12.8-25.5-12.8-63.3c0-59.3,34.3-103.5,77.1-103.5c36.4,0,54,27.3,54,60c0,36.6-23.3,91.3-35.3,141.9
	c-10,42.4,21.3,77.1,63.1,77.1c75.8,0,126.9-97.4,126.9-212.7c0-87.6-59-153.3-166.4-153.3c-121.4,0-196.9,90.5-196.9,191.5
	c0,34.9,10.2,59.4,26.4,78.4c7.4,8.8,8.4,12.3,5.7,22.3c-1.9,7.4-6.3,25.1-8.1,32.1c-2.6,10.1-10.8,13.8-20,10
	c-55.9-22.9-81.9-84-81.9-152.8c0-113.6,95.8-249.9,285.8-249.9c152.7,0,253.3,110.5,253.3,229.1c0,156.9-87.3,274.2-215.9,274.2
	c-43.2,0-83.8-23.4-97.7-49.9c0,0-23.2,92.2-28.1,110c-8.5,30.8-17.6,57.8-32.7,81.8c36,10.6,66.4,20.3,105.8,20.3
	c220.9,0,400-179.1,400-400C800,179.1,620.9,0,400,0z"/>
</svg>
