<?xml version="1.0" encoding="utf-8"?>
<!-- Generator: Adobe Illustrator 27.4.0, SVG Export Plug-In . SVG Version: 6.00 Build 0)  -->
<svg version="1.1" id="Tiktok" xmlns="http://www.w3.org/2000/svg" xmlns:xlink="http://www.w3.org/1999/xlink" x="0px" y="0px"
	 viewBox="0 0 800 800" style="enable-background:new 0 0 800 800;" xml:space="preserve">
<path d="M650.9,171.1c-5.4-2.8-10.7-5.8-15.7-9.2c-14.8-9.8-28.4-21.3-40.4-34.4c-30.2-34.5-41.4-69.5-45.6-94h0.2
	c-3.5-20.3-2-33.5-1.8-33.5H410v531.3c0,7.1,0,14.2-0.3,21.1c0,0.9-0.1,1.7-0.1,2.6c0,0.4,0,0.8-0.1,1.2c0,0.1,0,0.2,0,0.3
	c-2.9,38.7-24.9,73.4-58.7,92.6c-17.3,9.9-36.9,15-56.8,15c-64,0-115.9-52.2-115.9-116.7S230,430.8,294,430.8
	c12.1,0,24.2-1.1,35.7,2.7l0.2-136.9c-70.7-9.1-142,11.7-196.7,57.5c-23.7,20.6-43.6,45.1-58.8,72.5c-5.8,10-27.7,50.2-30.3,115.4
	c-1.7,37,9.4,75.4,14.7,91.2v0.3c3.3,9.3,16.2,41.2,37.3,68c17,21.5,37,40.5,59.5,56.1v-0.3l0.3,0.3
	c66.5,45.2,140.3,42.2,140.3,42.2c12.8-0.5,55.5,0,104.1-23c53.9-25.5,84.5-63.5,84.5-63.5c19.6-22.7,35.2-48.6,46.1-76.5
	c12.4-32.7,16.6-71.9,16.6-87.5V267.5c1.7,1,23.9,15.7,23.9,15.7s32,20.5,81.9,33.8c35.8,9.5,84,11.5,84,11.5V192.1
	C720.3,193.9,686,188.6,650.9,171.1z"/>
</svg>
