<?xml version="1.0" encoding="utf-8"?>
<!-- Generator: Adobe Illustrator 27.3.1, SVG Export Plug-In . SVG Version: 6.00 Build 0)  -->
<svg version="1.1" id="Laag_1" xmlns="http://www.w3.org/2000/svg" xmlns:xlink="http://www.w3.org/1999/xlink" x="0px" y="0px"
	 viewBox="0 0 398.1 509.7" style="enable-background:new 0 0 398.1 509.7;" xml:space="preserve">
<style type="text/css">
	.st0{fill:#E04848;}
</style>
<g>
	<path class="st0" d="M317.2,509.7H80.9c-4.5,0-8.3-3.4-8.8-7.9L36,136.7c-0.2-2.5,0.6-4.9,2.2-6.8c1.7-1.8,4-2.9,6.5-2.9h308.6
		c2.5,0,4.8,1,6.5,2.9c1.7,1.8,2.5,4.3,2.2,6.8l-36.3,365.1C325.4,506.3,321.6,509.7,317.2,509.7L317.2,509.7z M88.9,492.2h220.3
		l34.5-347.6H54.4L88.9,492.2z"/>
	<path class="st0" d="M140,459.4c-4.6,0-8.4-3.6-8.8-8.2l-18.1-264.5c-0.2-2.3,0.6-4.6,2.1-6.4c1.5-1.8,3.7-2.8,6-3
		c4.8-0.3,9,3.3,9.4,8.1L148.7,450c0.2,2.3-0.6,4.6-2.1,6.4c-1.5,1.7-3.7,2.8-6,3L140,459.4z"/>
	<path class="st0" d="M199,459.4c-4.8,0-8.8-3.9-8.8-8.8V186.2c0-4.8,3.9-8.8,8.8-8.8s8.8,3.9,8.8,8.8v264.5c0,2.3-0.9,4.5-2.6,6.2
		S201.4,459.4,199,459.4z"/>
	<path class="st0" d="M258.1,459.4h-0.6c-2.3-0.2-4.5-1.2-6-3c-1.5-1.8-2.3-4-2.1-6.4l18.1-264.4h0c0.3-4.8,4.5-8.5,9.4-8.1
		c4.8,0.3,8.5,4.5,8.1,9.4l-18.1,264.4C266.6,455.8,262.7,459.4,258.1,459.4L258.1,459.4z"/>
	<path class="st0" d="M353.6,144.6h-309c-15.9,0-30.6-8.5-38.5-22.3C-2,108.5-2,91.6,6,77.8s22.6-22.3,38.5-22.3h309
		c15.9,0,30.6,8.5,38.5,22.3c7.9,13.8,7.9,30.7,0,44.5S369.5,144.6,353.6,144.6z M44.5,73.1c-9.6,0-18.6,5.1-23.4,13.5
		c-4.8,8.4-4.8,18.6,0,27c4.8,8.4,13.7,13.5,23.4,13.5h309c9.6,0,18.6-5.1,23.4-13.5c4.8-8.4,4.8-18.6,0-27
		c-4.8-8.4-13.7-13.5-23.4-13.5H44.5z"/>
	<path class="st0" d="M259.4,73.1H138.6c-4.8,0-8.8-3.9-8.8-8.8V37.7c0-10,4-19.6,11.1-26.6C148,4,157.6,0,167.6,0h62.9
		c10,0,19.6,4,26.6,11.1c7.1,7.1,11,16.6,11.1,26.6v26.6C268.2,69.1,264.3,73.1,259.4,73.1L259.4,73.1z M147.4,55.6h103.3V37.7
		c0-5.4-2.1-10.5-5.9-14.3c-3.8-3.8-8.9-5.9-14.3-5.9h-62.9c-5.4,0-10.5,2.1-14.3,5.9c-3.8,3.8-5.9,8.9-5.9,14.3L147.4,55.6z"/>
</g>
</svg>
