<?xml version="1.0" encoding="utf-8"?>
<!-- Generator: Adobe Illustrator 27.4.0, SVG Export Plug-In . SVG Version: 6.00 Build 0)  -->
<svg version="1.1" id="Twitter" xmlns="http://www.w3.org/2000/svg" xmlns:xlink="http://www.w3.org/1999/xlink" x="0px" y="0px"
	 viewBox="0 0 800 800" style="enable-background:new 0 0 800 800;" xml:space="preserve">
<path d="M716.7,237.5c0.3,7,0.5,14.1,0.5,21.2c0,215.9-164.2,465-465,465c-92.3,0-178.1-27-250.5-73.4c12.8,1.4,25.8,2.2,39,2.2
	c76.6,0,147-26.1,202.9-69.9c-71.5-1.3-131.9-48.5-152.6-113.4c10,1.9,20.2,2.9,30.7,2.9c14.9,0,29.4-2,43.1-5.8
	c-74.7-15-131.1-81-131.1-160.2c0-0.7,0-1.3,0-2c22.1,12.3,47.3,19.6,74.1,20.4C64,295.1,35.2,245.1,35.2,188.3
	c0-29.9,8-58,22.1-82.1c80.5,98.8,201,164,336.8,170.7c-2.7-12-4.2-24.4-4.2-37.2c0-90.2,73.2-163.4,163.5-163.4
	c46.9,0,89.4,19.8,119.2,51.6c37.2-7.4,72.2-21,103.8-39.7c-12.3,38.2-38.2,70.2-71.8,90.4c33.1-4,64.5-12.7,93.8-25.7
	C776.4,185.8,748.7,214.5,716.7,237.5z"/>
</svg>
